<svg width="41" height="47" viewBox="0 0 41 47" fill="none" xmlns="http://www.w3.org/2000/svg">
<mask id="path-1-inside-1_1_557" fill="white">
<path fill-rule="evenodd" clip-rule="evenodd" d="M6 0L13.0078 6.63413L0 6.62646V38.8137H34V26.507L41 33.1338V0H6ZM33.6924 25.7283L13.8226 6.91796H33.6924V25.7283ZM27.5231 34.1055H5.38008V12.4579H6.9453V32.6397H27.5231V34.1055ZM9.7959 44.7959L8.9707 43.0991H8.28955L9.48584 45.3452V46.6538H10.1035V45.3452L11.2998 43.0991H10.6211L9.7959 44.7959ZM12.8379 43.0991H12.9844L14.3271 46.6538H13.6826L13.395 45.8213H12.0189L11.7319 46.6538H11.0898L12.4277 43.0991H12.5718H12.8379ZM12.1864 45.3354H13.2271L12.7062 43.8274L12.1864 45.3354ZM16.4821 44.7465C16.4553 44.7124 16.4295 44.6792 16.4048 44.647C16.3136 44.5265 16.2428 44.4102 16.1924 44.2979C16.1419 44.1839 16.1167 44.0667 16.1167 43.9463C16.1167 43.7607 16.1549 43.6012 16.2314 43.4678C16.3079 43.3343 16.4162 43.2318 16.5562 43.1602C16.6961 43.0869 16.8597 43.0503 17.0469 43.0503C17.2275 43.0503 17.383 43.0869 17.5132 43.1602C17.645 43.2318 17.7459 43.327 17.8159 43.4458C17.8875 43.5646 17.9233 43.6948 17.9233 43.8364C17.9233 43.9487 17.903 44.0513 17.8623 44.144C17.8216 44.2368 17.7655 44.3215 17.6938 44.3979C17.6222 44.4744 17.5392 44.5469 17.4448 44.6152L17.1979 44.7949L17.9018 45.6257C17.925 45.58 17.946 45.5321 17.9648 45.4819C18.0251 45.3257 18.0552 45.1523 18.0552 44.9619H18.563C18.563 45.1344 18.5459 45.298 18.5117 45.4526C18.4792 45.6073 18.4263 45.7505 18.353 45.8823C18.3233 45.937 18.2897 45.9893 18.2522 46.0392L18.7729 46.6538H18.0918L17.8852 46.4108C17.7734 46.4957 17.6518 46.562 17.5205 46.6099C17.348 46.6717 17.1641 46.7026 16.9688 46.7026C16.7327 46.7026 16.5285 46.6595 16.356 46.5732C16.1834 46.487 16.05 46.3682 15.9556 46.2168C15.8628 46.0654 15.8164 45.8921 15.8164 45.6968C15.8164 45.5519 15.8465 45.425 15.9067 45.3159C15.967 45.2052 16.0492 45.1027 16.1533 45.0083C16.2495 44.921 16.3591 44.8338 16.4821 44.7465ZM16.7738 45.1036L16.7002 45.1572C16.6139 45.2272 16.5496 45.2948 16.5073 45.3599C16.4666 45.4233 16.4398 45.4819 16.4268 45.5356C16.4137 45.5894 16.4072 45.6366 16.4072 45.6772C16.4072 45.7814 16.4292 45.8758 16.4731 45.9604C16.5187 46.0451 16.5846 46.1126 16.6709 46.1631C16.7588 46.2119 16.8654 46.2363 16.9907 46.2363C17.1258 46.2363 17.2568 46.2062 17.3838 46.146C17.4474 46.115 17.5078 46.0777 17.5648 46.034L16.7738 45.1036ZM16.9143 44.4544L17.1323 44.3076C17.2349 44.2393 17.3081 44.1725 17.3521 44.1074C17.396 44.0407 17.418 43.9577 17.418 43.8584C17.418 43.7738 17.3854 43.6956 17.3203 43.624C17.2552 43.5524 17.1632 43.5166 17.0444 43.5166C16.9614 43.5166 16.8914 43.5361 16.8345 43.5752C16.7775 43.6126 16.7344 43.6631 16.7051 43.7266C16.6774 43.7884 16.6636 43.8576 16.6636 43.9341C16.6636 44.0073 16.6823 44.083 16.7197 44.1611C16.7572 44.2376 16.8084 44.3182 16.8735 44.4028C16.8868 44.4197 16.9004 44.4369 16.9143 44.4544ZM23.1333 45.4966H22.5229C22.505 45.6512 22.4676 45.7822 22.4106 45.8896C22.3553 45.9954 22.2731 46.076 22.1641 46.1313C22.0566 46.1867 21.9159 46.2144 21.7417 46.2144C21.5985 46.2144 21.4756 46.1859 21.373 46.1289C21.2705 46.0719 21.1859 45.9914 21.1191 45.8872C21.054 45.783 21.0052 45.6585 20.9727 45.5137C20.9417 45.3672 20.9263 45.2044 20.9263 45.0254V44.7251C20.9263 44.5363 20.9434 44.3687 20.9775 44.2222C21.0133 44.0741 21.0662 43.9495 21.1362 43.8486C21.2062 43.7477 21.2933 43.6712 21.3975 43.6191C21.5016 43.5671 21.6237 43.541 21.7637 43.541C21.9346 43.541 22.0729 43.5703 22.1787 43.6289C22.2845 43.6859 22.3643 43.7689 22.418 43.8779C22.4733 43.987 22.5091 44.118 22.5254 44.271H23.1357C23.1113 44.0334 23.0446 43.8226 22.9355 43.6387C22.8281 43.4548 22.6768 43.3107 22.4814 43.2065C22.2861 43.1024 22.0469 43.0503 21.7637 43.0503C21.5407 43.0503 21.3397 43.0894 21.1606 43.1675C20.9832 43.2456 20.8311 43.3587 20.7041 43.5068C20.5771 43.6533 20.4795 43.8299 20.4111 44.0366C20.3444 44.2433 20.311 44.4744 20.311 44.73V45.0254C20.311 45.2809 20.3436 45.512 20.4087 45.7188C20.4754 45.9255 20.5715 46.1021 20.6968 46.2485C20.8221 46.3934 20.9727 46.5057 21.1484 46.5854C21.3242 46.6636 21.522 46.7026 21.7417 46.7026C22.0282 46.7026 22.2715 46.6506 22.4717 46.5464C22.6719 46.4422 22.8273 46.2998 22.938 46.1191C23.0487 45.9368 23.1138 45.7293 23.1333 45.4966ZM26.5244 44.9741V44.7788C26.5244 44.5103 26.4886 44.2702 26.417 44.0586C26.347 43.8454 26.2469 43.6639 26.1167 43.5142C25.9865 43.3628 25.8311 43.248 25.6504 43.1699C25.4697 43.0902 25.2695 43.0503 25.0498 43.0503C24.8317 43.0503 24.6323 43.0902 24.4517 43.1699C24.2726 43.248 24.1172 43.3628 23.9854 43.5142C23.8551 43.6639 23.7542 43.8454 23.6826 44.0586C23.611 44.2702 23.5752 44.5103 23.5752 44.7788V44.9741C23.5752 45.2427 23.611 45.4836 23.6826 45.6968C23.7559 45.91 23.8584 46.0915 23.9902 46.2412C24.1221 46.3909 24.2775 46.5057 24.4565 46.5854C24.6372 46.6636 24.8366 46.7026 25.0547 46.7026C25.2744 46.7026 25.4746 46.6636 25.6553 46.5854C25.8359 46.5057 25.9906 46.3909 26.1191 46.2412C26.2493 46.0915 26.3494 45.91 26.4194 45.6968C26.4894 45.4836 26.5244 45.2427 26.5244 44.9741ZM25.9116 44.7739V44.9741C25.9116 45.1727 25.8921 45.3485 25.853 45.5015C25.8156 45.6545 25.7603 45.7839 25.687 45.8896C25.6138 45.9938 25.5243 46.0728 25.4185 46.1265C25.3127 46.1785 25.1914 46.2046 25.0547 46.2046C24.9196 46.2046 24.7992 46.1785 24.6934 46.1265C24.5876 46.0728 24.4964 45.9938 24.4199 45.8896C24.3451 45.7839 24.2881 45.6545 24.249 45.5015C24.21 45.3485 24.1904 45.1727 24.1904 44.9741V44.7739C24.1904 44.5754 24.21 44.4004 24.249 44.249C24.2881 44.096 24.3442 43.9683 24.4175 43.8657C24.4923 43.7616 24.5827 43.6834 24.6885 43.6313C24.7943 43.5776 24.9147 43.5508 25.0498 43.5508C25.1849 43.5508 25.3062 43.5776 25.4136 43.6313C25.521 43.6834 25.6113 43.7616 25.6846 43.8657C25.7594 43.9683 25.8156 44.096 25.853 44.249C25.8921 44.4004 25.9116 44.5754 25.9116 44.7739Z"/>
</mask>
<path fill-rule="evenodd" clip-rule="evenodd" d="M6 0L13.0078 6.63413L0 6.62646V38.8137H34V26.507L41 33.1338V0H6ZM33.6924 25.7283L13.8226 6.91796H33.6924V25.7283ZM27.5231 34.1055H5.38008V12.4579H6.9453V32.6397H27.5231V34.1055ZM9.7959 44.7959L8.9707 43.0991H8.28955L9.48584 45.3452V46.6538H10.1035V45.3452L11.2998 43.0991H10.6211L9.7959 44.7959ZM12.8379 43.0991H12.9844L14.3271 46.6538H13.6826L13.395 45.8213H12.0189L11.7319 46.6538H11.0898L12.4277 43.0991H12.5718H12.8379ZM12.1864 45.3354H13.2271L12.7062 43.8274L12.1864 45.3354ZM16.4821 44.7465C16.4553 44.7124 16.4295 44.6792 16.4048 44.647C16.3136 44.5265 16.2428 44.4102 16.1924 44.2979C16.1419 44.1839 16.1167 44.0667 16.1167 43.9463C16.1167 43.7607 16.1549 43.6012 16.2314 43.4678C16.3079 43.3343 16.4162 43.2318 16.5562 43.1602C16.6961 43.0869 16.8597 43.0503 17.0469 43.0503C17.2275 43.0503 17.383 43.0869 17.5132 43.1602C17.645 43.2318 17.7459 43.327 17.8159 43.4458C17.8875 43.5646 17.9233 43.6948 17.9233 43.8364C17.9233 43.9487 17.903 44.0513 17.8623 44.144C17.8216 44.2368 17.7655 44.3215 17.6938 44.3979C17.6222 44.4744 17.5392 44.5469 17.4448 44.6152L17.1979 44.7949L17.9018 45.6257C17.925 45.58 17.946 45.5321 17.9648 45.4819C18.0251 45.3257 18.0552 45.1523 18.0552 44.9619H18.563C18.563 45.1344 18.5459 45.298 18.5117 45.4526C18.4792 45.6073 18.4263 45.7505 18.353 45.8823C18.3233 45.937 18.2897 45.9893 18.2522 46.0392L18.7729 46.6538H18.0918L17.8852 46.4108C17.7734 46.4957 17.6518 46.562 17.5205 46.6099C17.348 46.6717 17.1641 46.7026 16.9688 46.7026C16.7327 46.7026 16.5285 46.6595 16.356 46.5732C16.1834 46.487 16.05 46.3682 15.9556 46.2168C15.8628 46.0654 15.8164 45.8921 15.8164 45.6968C15.8164 45.5519 15.8465 45.425 15.9067 45.3159C15.967 45.2052 16.0492 45.1027 16.1533 45.0083C16.2495 44.921 16.3591 44.8338 16.4821 44.7465ZM16.7738 45.1036L16.7002 45.1572C16.6139 45.2272 16.5496 45.2948 16.5073 45.3599C16.4666 45.4233 16.4398 45.4819 16.4268 45.5356C16.4137 45.5894 16.4072 45.6366 16.4072 45.6772C16.4072 45.7814 16.4292 45.8758 16.4731 45.9604C16.5187 46.0451 16.5846 46.1126 16.6709 46.1631C16.7588 46.2119 16.8654 46.2363 16.9907 46.2363C17.1258 46.2363 17.2568 46.2062 17.3838 46.146C17.4474 46.115 17.5078 46.0777 17.5648 46.034L16.7738 45.1036ZM16.9143 44.4544L17.1323 44.3076C17.2349 44.2393 17.3081 44.1725 17.3521 44.1074C17.396 44.0407 17.418 43.9577 17.418 43.8584C17.418 43.7738 17.3854 43.6956 17.3203 43.624C17.2552 43.5524 17.1632 43.5166 17.0444 43.5166C16.9614 43.5166 16.8914 43.5361 16.8345 43.5752C16.7775 43.6126 16.7344 43.6631 16.7051 43.7266C16.6774 43.7884 16.6636 43.8576 16.6636 43.9341C16.6636 44.0073 16.6823 44.083 16.7197 44.1611C16.7572 44.2376 16.8084 44.3182 16.8735 44.4028C16.8868 44.4197 16.9004 44.4369 16.9143 44.4544ZM23.1333 45.4966H22.5229C22.505 45.6512 22.4676 45.7822 22.4106 45.8896C22.3553 45.9954 22.2731 46.076 22.1641 46.1313C22.0566 46.1867 21.9159 46.2144 21.7417 46.2144C21.5985 46.2144 21.4756 46.1859 21.373 46.1289C21.2705 46.0719 21.1859 45.9914 21.1191 45.8872C21.054 45.783 21.0052 45.6585 20.9727 45.5137C20.9417 45.3672 20.9263 45.2044 20.9263 45.0254V44.7251C20.9263 44.5363 20.9434 44.3687 20.9775 44.2222C21.0133 44.0741 21.0662 43.9495 21.1362 43.8486C21.2062 43.7477 21.2933 43.6712 21.3975 43.6191C21.5016 43.5671 21.6237 43.541 21.7637 43.541C21.9346 43.541 22.0729 43.5703 22.1787 43.6289C22.2845 43.6859 22.3643 43.7689 22.418 43.8779C22.4733 43.987 22.5091 44.118 22.5254 44.271H23.1357C23.1113 44.0334 23.0446 43.8226 22.9355 43.6387C22.8281 43.4548 22.6768 43.3107 22.4814 43.2065C22.2861 43.1024 22.0469 43.0503 21.7637 43.0503C21.5407 43.0503 21.3397 43.0894 21.1606 43.1675C20.9832 43.2456 20.8311 43.3587 20.7041 43.5068C20.5771 43.6533 20.4795 43.8299 20.4111 44.0366C20.3444 44.2433 20.311 44.4744 20.311 44.73V45.0254C20.311 45.2809 20.3436 45.512 20.4087 45.7188C20.4754 45.9255 20.5715 46.1021 20.6968 46.2485C20.8221 46.3934 20.9727 46.5057 21.1484 46.5854C21.3242 46.6636 21.522 46.7026 21.7417 46.7026C22.0282 46.7026 22.2715 46.6506 22.4717 46.5464C22.6719 46.4422 22.8273 46.2998 22.938 46.1191C23.0487 45.9368 23.1138 45.7293 23.1333 45.4966ZM26.5244 44.9741V44.7788C26.5244 44.5103 26.4886 44.2702 26.417 44.0586C26.347 43.8454 26.2469 43.6639 26.1167 43.5142C25.9865 43.3628 25.8311 43.248 25.6504 43.1699C25.4697 43.0902 25.2695 43.0503 25.0498 43.0503C24.8317 43.0503 24.6323 43.0902 24.4517 43.1699C24.2726 43.248 24.1172 43.3628 23.9854 43.5142C23.8551 43.6639 23.7542 43.8454 23.6826 44.0586C23.611 44.2702 23.5752 44.5103 23.5752 44.7788V44.9741C23.5752 45.2427 23.611 45.4836 23.6826 45.6968C23.7559 45.91 23.8584 46.0915 23.9902 46.2412C24.1221 46.3909 24.2775 46.5057 24.4565 46.5854C24.6372 46.6636 24.8366 46.7026 25.0547 46.7026C25.2744 46.7026 25.4746 46.6636 25.6553 46.5854C25.8359 46.5057 25.9906 46.3909 26.1191 46.2412C26.2493 46.0915 26.3494 45.91 26.4194 45.6968C26.4894 45.4836 26.5244 45.2427 26.5244 44.9741ZM25.9116 44.7739V44.9741C25.9116 45.1727 25.8921 45.3485 25.853 45.5015C25.8156 45.6545 25.7603 45.7839 25.687 45.8896C25.6138 45.9938 25.5243 46.0728 25.4185 46.1265C25.3127 46.1785 25.1914 46.2046 25.0547 46.2046C24.9196 46.2046 24.7992 46.1785 24.6934 46.1265C24.5876 46.0728 24.4964 45.9938 24.4199 45.8896C24.3451 45.7839 24.2881 45.6545 24.249 45.5015C24.21 45.3485 24.1904 45.1727 24.1904 44.9741V44.7739C24.1904 44.5754 24.21 44.4004 24.249 44.249C24.2881 44.096 24.3442 43.9683 24.4175 43.8657C24.4923 43.7616 24.5827 43.6834 24.6885 43.6313C24.7943 43.5776 24.9147 43.5508 25.0498 43.5508C25.1849 43.5508 25.3062 43.5776 25.4136 43.6313C25.521 43.6834 25.6113 43.7616 25.6846 43.8657C25.7594 43.9683 25.8156 44.096 25.853 44.249C25.8921 44.4004 25.9116 44.5754 25.9116 44.7739Z" fill="#AFB1B8"/>
<path d="M13.0078 6.63413L13.0072 7.63413L15.5203 7.63561L13.6953 5.90792L13.0078 6.63413ZM6 0V-1H3.48909L5.31252 0.726202L6 0ZM0 6.62646L0.000589055 5.62646L-1 5.62588V6.62646H0ZM0 38.8137H-1V39.8137H0V38.8137ZM34 38.8137V39.8137H35V38.8137H34ZM34 26.507L34.6875 25.7808L33 24.1833V26.507H34ZM41 33.1338L40.3125 33.86L42 35.4575V33.1338H41ZM41 0H42V-1H41V0ZM13.8226 6.91796V5.91796H11.3117L13.1352 7.64416L13.8226 6.91796ZM33.6924 25.7283L33.0049 26.4545L34.6924 28.0521V25.7283H33.6924ZM33.6924 6.91796H34.6924V5.91796H33.6924V6.91796ZM5.38008 34.1055H4.38008V35.1055H5.38008V34.1055ZM27.5231 34.1055V35.1055H28.5231V34.1055H27.5231ZM5.38008 12.4579V11.4579H4.38008V12.4579H5.38008ZM6.9453 12.4579H7.9453V11.4579H6.9453V12.4579ZM6.9453 32.6397H5.9453V33.6397H6.9453V32.6397ZM27.5231 32.6397H28.5231V31.6397H27.5231V32.6397ZM8.9707 43.0991L9.86999 42.6618L9.59636 42.0991H8.9707V43.0991ZM9.7959 44.7959L8.89661 45.2332L9.7959 47.0824L10.6952 45.2332L9.7959 44.7959ZM8.28955 43.0991V42.0991H6.62395L7.40693 43.5692L8.28955 43.0991ZM9.48584 45.3452H10.4858V45.0955L10.3685 44.8751L9.48584 45.3452ZM9.48584 46.6538H8.48584V47.6538H9.48584V46.6538ZM10.1035 46.6538V47.6538H11.1035V46.6538H10.1035ZM10.1035 45.3452L9.2209 44.8751L9.10352 45.0955V45.3452H10.1035ZM11.2998 43.0991L12.1824 43.5692L12.9654 42.0991H11.2998V43.0991ZM10.6211 43.0991V42.0991H9.99544L9.7218 42.6618L10.6211 43.0991ZM12.9844 43.0991L13.9199 42.7457L13.6756 42.0991H12.9844V43.0991ZM14.3271 46.6538V47.6538H15.7739L15.2626 46.3004L14.3271 46.6538ZM13.6826 46.6538L12.7374 46.9804L12.9701 47.6538H13.6826V46.6538ZM13.395 45.8213L14.3402 45.4947L14.1075 44.8213H13.395V45.8213ZM12.0189 45.8213V44.8213H11.3058L11.0735 45.4954L12.0189 45.8213ZM11.7319 46.6538V47.6538H12.445L12.6773 46.9797L11.7319 46.6538ZM11.0898 46.6538L10.1539 46.3016L9.64499 47.6538H11.0898V46.6538ZM12.4277 43.0991V42.0991H11.7356L11.4918 42.7469L12.4277 43.0991ZM12.1864 45.3354L11.2409 45.0096L10.7839 46.3354H12.1864V45.3354ZM13.2271 45.3354V46.3354H14.6306L14.1723 45.0089L13.2271 45.3354ZM12.7062 43.8274L13.6513 43.5009L12.7051 40.7619L11.7607 43.5016L12.7062 43.8274ZM16.4821 44.7465L17.0607 45.5621L17.9177 44.9542L17.2681 44.1283L16.4821 44.7465ZM16.4048 44.647L15.6074 45.2504L15.6113 45.2556L16.4048 44.647ZM16.1924 44.2979L15.278 44.7028L15.2802 44.7077L16.1924 44.2979ZM16.5562 43.1602L17.0116 44.0504L17.0198 44.0462L16.5562 43.1602ZM17.5132 43.1602L17.0229 44.0317L17.0294 44.0354L17.0359 44.0389L17.5132 43.1602ZM17.8159 43.4458L16.9542 43.9534L16.9595 43.962L17.8159 43.4458ZM17.4448 44.6152L16.8583 43.8053L16.8563 43.8067L17.4448 44.6152ZM17.1979 44.7949L16.6095 43.9864L15.739 44.62L16.435 45.4414L17.1979 44.7949ZM17.9018 45.6257L17.1389 46.2721L18.1119 47.4205L18.7934 46.0785L17.9018 45.6257ZM17.9648 45.4819L17.0317 45.1223L17.0285 45.1308L17.9648 45.4819ZM18.0552 44.9619V43.9619H17.0552V44.9619H18.0552ZM18.563 44.9619H19.563V43.9619H18.563V44.9619ZM18.5117 45.4526L17.5352 45.2368L17.5332 45.2466L18.5117 45.4526ZM18.353 45.8823L17.4788 45.3967L17.4743 45.405L18.353 45.8823ZM18.2522 46.0392L17.453 45.4382L16.973 46.0764L17.4892 46.6856L18.2522 46.0392ZM18.7729 46.6538V47.6538H20.9309L19.5359 46.0074L18.7729 46.6538ZM18.0918 46.6538L17.3299 47.3016L17.6294 47.6538H18.0918V46.6538ZM17.8852 46.4108L18.6471 45.7631L18.0344 45.0425L17.2809 45.6141L17.8852 46.4108ZM17.5205 46.6099L17.858 47.5512L17.8629 47.5494L17.5205 46.6099ZM15.9556 46.2168L15.1029 46.7394L15.1071 46.746L15.9556 46.2168ZM15.9067 45.3159L16.7821 45.7993L16.7851 45.7939L15.9067 45.3159ZM16.1533 45.0083L16.8248 45.7493L16.8254 45.7488L16.1533 45.0083ZM16.7738 45.1036L17.5357 44.4559L16.935 43.7494L16.1853 44.2951L16.7738 45.1036ZM16.7002 45.1572L16.1117 44.3487L16.0905 44.3642L16.0702 44.3807L16.7002 45.1572ZM16.5073 45.3599L15.6689 44.8149L15.6654 44.8202L16.5073 45.3599ZM16.4731 45.9604L15.5856 46.4213L15.5891 46.4279L15.5927 46.4345L16.4731 45.9604ZM16.6709 46.1631L16.166 47.0263L16.1756 47.0319L16.1853 47.0372L16.6709 46.1631ZM17.3838 46.146L17.8124 47.0495L17.8217 47.045L17.3838 46.146ZM17.5648 46.034L18.1724 46.8283L19.0088 46.1885L18.3267 45.3863L17.5648 46.034ZM16.9143 44.4544L16.133 45.0784L16.7082 45.7987L17.4729 45.2839L16.9143 44.4544ZM17.1323 44.3076L16.5776 43.4756L16.5738 43.4781L17.1323 44.3076ZM17.3521 44.1074L18.181 44.6669L18.1872 44.6574L17.3521 44.1074ZM16.8345 43.5752L17.3836 44.4109L17.3919 44.4055L17.4 44.3999L16.8345 43.5752ZM16.7051 43.7266L15.7971 43.3075L15.7923 43.3182L16.7051 43.7266ZM16.7197 44.1611L15.8179 44.5933L15.8215 44.6007L16.7197 44.1611ZM16.8735 44.4028L16.0809 45.0126L16.0867 45.02L16.8735 44.4028ZM22.5229 45.4966V44.4966H21.6321L21.5296 45.3816L22.5229 45.4966ZM23.1333 45.4966L24.1298 45.5802L24.2207 44.4966H23.1333V45.4966ZM22.4106 45.8896L21.5272 45.4211L21.5245 45.4262L22.4106 45.8896ZM22.1641 46.1313L21.7115 45.2396L21.7061 45.2424L22.1641 46.1313ZM21.1191 45.8872L20.2711 46.4172L20.2771 46.4266L21.1191 45.8872ZM20.9727 45.5137L19.9941 45.7202L19.997 45.7329L20.9727 45.5137ZM20.9775 44.2222L20.0055 43.9872L20.0037 43.9949L20.9775 44.2222ZM22.1787 43.6289L21.6942 44.5038L21.7046 44.5094L22.1787 43.6289ZM22.418 43.8779L21.5208 44.3198L21.5262 44.3305L22.418 43.8779ZM22.5254 44.271L21.531 44.3768L21.6261 45.271H22.5254V44.271ZM23.1357 44.271V45.271H24.2437L24.1305 44.1688L23.1357 44.271ZM22.9355 43.6387L22.072 44.143L22.0754 44.1487L22.9355 43.6387ZM21.1606 43.1675L20.7607 42.2509L20.7576 42.2523L21.1606 43.1675ZM20.7041 43.5068L21.4598 44.1618L21.4634 44.1576L20.7041 43.5068ZM20.4111 44.0366L19.4617 43.7226L19.4595 43.7294L20.4111 44.0366ZM20.4087 45.7188L19.4549 46.0192L19.4571 46.026L20.4087 45.7188ZM20.6968 46.2485L19.9369 46.8986L19.9405 46.9028L20.6968 46.2485ZM21.1484 46.5854L20.7353 47.4961L20.7423 47.4993L21.1484 46.5854ZM22.938 46.1191L23.7907 46.6415L23.7928 46.6381L22.938 46.1191ZM26.417 44.0586L25.4668 44.3705L25.4698 44.3792L26.417 44.0586ZM26.1167 43.5142L25.3586 44.1663L25.3621 44.1703L26.1167 43.5142ZM25.6504 43.1699L25.2465 44.0848L25.2535 44.0878L25.6504 43.1699ZM24.4517 43.1699L24.8516 44.0865L24.8555 44.0847L24.4517 43.1699ZM23.9854 43.5142L23.2313 42.8574L23.2308 42.858L23.9854 43.5142ZM23.6826 44.0586L24.6298 44.3792L24.6306 44.377L23.6826 44.0586ZM23.6826 45.6968L22.7346 46.0152L22.7369 46.0217L23.6826 45.6968ZM24.4565 46.5854L24.0496 47.499L24.0596 47.5033L24.4565 46.5854ZM25.6553 46.5854L26.0522 47.5033L26.0591 47.5003L25.6553 46.5854ZM26.1191 46.2412L25.3645 45.585L25.3605 45.5897L26.1191 46.2412ZM25.853 45.5015L24.8841 45.2541L24.8817 45.2638L25.853 45.5015ZM25.687 45.8896L26.5051 46.4648L26.5092 46.4589L25.687 45.8896ZM25.4185 46.1265L25.8602 47.0237L25.8711 47.0181L25.4185 46.1265ZM24.6934 46.1265L24.2406 47.0182L24.2517 47.0236L24.6934 46.1265ZM24.4199 45.8896L23.6037 46.4673L23.6087 46.4745L23.6139 46.4816L24.4199 45.8896ZM24.249 44.249L25.2173 44.4989L25.2179 44.4964L24.249 44.249ZM24.4175 43.8657L23.6055 43.2821L23.6037 43.2845L24.4175 43.8657ZM24.6885 43.6313L25.1302 44.5286L25.1412 44.523L24.6885 43.6313ZM25.4136 43.6313L24.9663 44.5258L24.9773 44.5312L25.4136 43.6313ZM25.6846 43.8657L24.8665 44.4409L24.8717 44.4482L24.8769 44.4554L25.6846 43.8657ZM25.853 44.249L24.8816 44.4867L24.8848 44.4989L25.853 44.249ZM13.6953 5.90792L6.68748 -0.726202L5.31252 0.726202L12.3203 7.36033L13.6953 5.90792ZM-0.000589055 7.62646L13.0072 7.63413L13.0084 5.63413L0.000589055 5.62646L-0.000589055 7.62646ZM1 38.8137V6.62646H-1V38.8137H1ZM34 37.8137H0V39.8137H34V37.8137ZM33 26.507V38.8137H35V26.507H33ZM41.6875 32.4076L34.6875 25.7808L33.3125 27.2332L40.3125 33.86L41.6875 32.4076ZM40 0V33.1338H42V0H40ZM6 1H41V-1H6V1ZM13.1352 7.64416L33.0049 26.4545L34.3799 25.0021L14.5101 6.19176L13.1352 7.64416ZM33.6924 5.91796H13.8226V7.91796H33.6924V5.91796ZM34.6924 25.7283V6.91796H32.6924V25.7283H34.6924ZM5.38008 35.1055H27.5231V33.1055H5.38008V35.1055ZM4.38008 12.4579V34.1055H6.38008V12.4579H4.38008ZM6.9453 11.4579H5.38008V13.4579H6.9453V11.4579ZM7.9453 32.6397V12.4579H5.9453V32.6397H7.9453ZM27.5231 31.6397H6.9453V33.6397H27.5231V31.6397ZM28.5231 34.1055V32.6397H26.5231V34.1055H28.5231ZM8.07141 43.5365L8.89661 45.2332L10.6952 44.3585L9.86999 42.6618L8.07141 43.5365ZM8.28955 44.0991H8.9707V42.0991H8.28955V44.0991ZM10.3685 44.8751L9.17217 42.629L7.40693 43.5692L8.60322 45.8153L10.3685 44.8751ZM10.4858 46.6538V45.3452H8.48584V46.6538H10.4858ZM10.1035 45.6538H9.48584V47.6538H10.1035V45.6538ZM9.10352 45.3452V46.6538H11.1035V45.3452H9.10352ZM10.4172 42.629L9.2209 44.8751L10.9861 45.8153L12.1824 43.5692L10.4172 42.629ZM10.6211 44.0991H11.2998V42.0991H10.6211V44.0991ZM10.6952 45.2332L11.5204 43.5365L9.7218 42.6618L8.89661 44.3585L10.6952 45.2332ZM12.8379 44.0991H12.9844V42.0991H12.8379V44.0991ZM12.0489 43.4525L13.3917 47.0072L15.2626 46.3004L13.9199 42.7457L12.0489 43.4525ZM14.3271 45.6538H13.6826V47.6538H14.3271V45.6538ZM14.6278 46.3273L14.3402 45.4947L12.4498 46.1478L12.7374 46.9804L14.6278 46.3273ZM13.395 44.8213H12.0189V46.8213H13.395V44.8213ZM11.0735 45.4954L10.7865 46.3279L12.6773 46.9797L12.9643 46.1472L11.0735 45.4954ZM11.7319 45.6538H11.0898V47.6538H11.7319V45.6538ZM12.0257 47.0061L13.3636 43.4514L11.4918 42.7469L10.1539 46.3016L12.0257 47.0061ZM12.4277 44.0991H12.5718V42.0991H12.4277V44.0991ZM12.5718 44.0991H12.8379V42.0991H12.5718V44.0991ZM12.1864 46.3354H13.2271V44.3354H12.1864V46.3354ZM14.1723 45.0089L13.6513 43.5009L11.761 44.154L12.282 45.662L14.1723 45.0089ZM11.7607 43.5016L11.2409 45.0096L13.1318 45.6613L13.6516 44.1533L11.7607 43.5016ZM17.2681 44.1283C17.2437 44.0972 17.2204 44.0672 17.1982 44.0383L15.6113 45.2556C15.6387 45.2913 15.667 45.3276 15.6961 45.3647L17.2681 44.1283ZM17.2022 44.0435C17.1466 43.9701 17.1181 43.9183 17.1046 43.888L15.2802 44.7077C15.3675 44.902 15.4806 45.0829 15.6074 45.2504L17.2022 44.0435ZM17.1067 43.8929C17.1081 43.896 17.1109 43.9033 17.1132 43.9141C17.1156 43.9249 17.1167 43.9361 17.1167 43.9463H15.1167C15.1167 44.2111 15.1731 44.4658 15.278 44.7028L17.1067 43.8929ZM17.1167 43.9463C17.1167 43.922 17.1192 43.9149 17.1178 43.9207C17.1171 43.9236 17.1155 43.9295 17.1124 43.9374C17.1092 43.9455 17.1049 43.9549 17.099 43.965L15.3639 42.9705C15.1843 43.2837 15.1167 43.6222 15.1167 43.9463H17.1167ZM17.099 43.965C17.0904 43.9802 17.0766 43.9988 17.0577 44.0167C17.039 44.0345 17.0219 44.0452 17.0116 44.0504L16.1007 42.2699C15.7922 42.4277 15.539 42.665 15.3639 42.9705L17.099 43.965ZM17.0198 44.0462C17.0077 44.0525 17.0006 44.054 17.0023 44.0536C17.0046 44.0531 17.0184 44.0503 17.0469 44.0503V42.0503C16.728 42.0503 16.3998 42.1133 16.0925 42.2741L17.0198 44.0462ZM17.0469 44.0503C17.0699 44.0503 17.0761 44.0526 17.0696 44.0511C17.0623 44.0494 17.045 44.0442 17.0229 44.0317L18.0034 42.2886C17.6952 42.1152 17.3635 42.0503 17.0469 42.0503V44.0503ZM17.0359 44.0389C17.032 44.0368 17.0187 44.0289 17.0015 44.0126C16.9838 43.996 16.9674 43.9756 16.9543 43.9533L18.6776 42.9383C18.5075 42.6495 18.2672 42.4317 17.9905 42.2814L17.0359 44.0389ZM16.9595 43.962C16.9493 43.9452 16.9393 43.9232 16.9323 43.8977C16.9253 43.8723 16.9233 43.8509 16.9233 43.8364H18.9233C18.9233 43.5169 18.8399 43.2076 18.6724 42.9296L16.9595 43.962ZM16.9233 43.8364C16.9233 43.8255 16.9259 43.7894 16.9465 43.7424L18.7781 44.5457C18.8801 44.3132 18.9233 44.0719 18.9233 43.8364H16.9233ZM16.9465 43.7424C16.9493 43.736 16.9528 43.7297 16.9564 43.7243C16.96 43.7188 16.9628 43.7156 16.9638 43.7145L18.4239 45.0814C18.5702 44.925 18.6903 44.7458 18.7781 44.5457L16.9465 43.7424ZM16.9638 43.7145C16.9404 43.7395 16.9066 43.7703 16.8583 43.8053L18.0313 45.4252C18.1718 45.3234 18.304 45.2094 18.4239 45.0814L16.9638 43.7145ZM16.8563 43.8067L16.6095 43.9864L17.7864 45.6034L18.0333 45.4237L16.8563 43.8067ZM16.435 45.4414L17.1389 46.2721L18.6648 44.9792L17.9609 44.1485L16.435 45.4414ZM18.7934 46.0785C18.8342 45.9983 18.8699 45.9163 18.9012 45.8331L17.0285 45.1308C17.0221 45.1479 17.0159 45.1618 17.0102 45.1729L18.7934 46.0785ZM18.8979 45.8416C19.008 45.5559 19.0552 45.2586 19.0552 44.9619H17.0552C17.0552 45.0461 17.0421 45.0954 17.0317 45.1223L18.8979 45.8416ZM18.0552 45.9619H18.563V43.9619H18.0552V45.9619ZM17.563 44.9619C17.563 45.0683 17.5525 45.159 17.5353 45.2368L19.4881 45.6685C19.5393 45.437 19.563 45.2006 19.563 44.9619H17.563ZM17.5332 45.2466C17.5202 45.308 17.5012 45.3564 17.4789 45.3967L19.2272 46.368C19.3513 46.1446 19.4381 45.9065 19.4903 45.6587L17.5332 45.2466ZM17.4743 45.405C17.4681 45.4164 17.4611 45.4273 17.453 45.4382L19.0514 46.6402C19.1183 46.5512 19.1785 46.4576 19.2318 46.3596L17.4743 45.405ZM17.4892 46.6856L18.01 47.3003L19.5359 46.0074L19.0151 45.3927L17.4892 46.6856ZM18.7729 45.6538H18.0918V47.6538H18.7729V45.6538ZM18.8537 46.0061L18.6471 45.7631L17.1234 47.0586L17.3299 47.3016L18.8537 46.0061ZM17.2809 45.6141C17.2483 45.6388 17.2149 45.6569 17.1781 45.6703L17.8629 47.5494C18.0886 47.4671 18.2984 47.3525 18.4895 47.2076L17.2809 45.6141ZM17.1831 45.6685C17.1257 45.6891 17.0566 45.7026 16.9688 45.7026V47.7026C17.2715 47.7026 17.5702 47.6544 17.858 47.5512L17.1831 45.6685ZM16.9688 45.7026C16.8539 45.7026 16.8092 45.6818 16.8032 45.6788L15.9087 47.4677C16.2477 47.6372 16.6116 47.7026 16.9688 47.7026V45.7026ZM16.8032 45.6788C16.7894 45.672 16.7874 45.6689 16.7914 45.6725C16.7932 45.6741 16.7956 45.6765 16.7981 45.6795C16.8007 45.6825 16.8027 45.6854 16.8041 45.6876L15.1071 46.746C15.3069 47.0664 15.5852 47.3059 15.9087 47.4677L16.8032 45.6788ZM16.8082 45.6942C16.8101 45.6974 16.8121 45.7012 16.8138 45.7052C16.8156 45.7093 16.8166 45.7126 16.8172 45.7148C16.8185 45.7195 16.8164 45.7148 16.8164 45.6968H14.8164C14.8164 46.0575 14.9043 46.4152 15.103 46.7394L16.8082 45.6942ZM16.8164 45.6968C16.8164 45.6936 16.8167 45.7038 16.812 45.7237C16.8071 45.7443 16.7979 45.7708 16.7821 45.7993L15.0314 44.8325C14.877 45.1121 14.8164 45.4106 14.8164 45.6968H16.8164ZM16.7851 45.7939C16.7858 45.7926 16.7944 45.7769 16.8248 45.7493L15.4818 44.2673C15.3039 44.4285 15.1481 44.6179 15.0284 44.838L16.7851 45.7939ZM16.8254 45.7488C16.8876 45.6923 16.9652 45.6298 17.0607 45.5621L15.9035 43.9308C15.7529 44.0377 15.6113 44.1498 15.4812 44.2678L16.8254 45.7488ZM16.1853 44.2951L16.1117 44.3487L17.2887 45.9657L17.3623 45.9121L16.1853 44.2951ZM16.0702 44.3807C15.9346 44.4906 15.7869 44.6334 15.6689 44.8149L17.3458 45.9049C17.3275 45.9329 17.3137 45.9476 17.3116 45.9498C17.3093 45.9523 17.3143 45.9467 17.3302 45.9338L16.0702 44.3807ZM15.6654 44.8202C15.5851 44.9455 15.5017 45.1072 15.4549 45.3L17.3986 45.7713C17.3878 45.8159 17.3747 45.8485 17.3657 45.8681C17.3567 45.8877 17.35 45.8983 17.3492 45.8995L15.6654 44.8202ZM15.4549 45.3C15.4294 45.4054 15.4072 45.5347 15.4072 45.6772H17.4072C17.4072 45.7095 17.4047 45.7337 17.4027 45.748C17.4007 45.7624 17.3988 45.7705 17.3986 45.7713L15.4549 45.3ZM15.4072 45.6772C15.4072 45.9267 15.4611 46.1814 15.5856 46.4213L17.3606 45.4996C17.3973 45.5702 17.4072 45.6361 17.4072 45.6772H15.4072ZM15.5927 46.4345C15.7289 46.6875 15.9278 46.8869 16.166 47.0263L17.1758 45.2999C17.2054 45.3172 17.2393 45.3421 17.2724 45.3761C17.3058 45.4103 17.333 45.4481 17.3536 45.4864L15.5927 46.4345ZM16.1853 47.0372C16.454 47.1866 16.7367 47.2363 16.9907 47.2363V45.2363C16.994 45.2363 17.0635 45.2373 17.1565 45.2889L16.1853 47.0372ZM16.9907 47.2363C17.2801 47.2363 17.557 47.1706 17.8124 47.0495L16.9552 45.2425C16.9542 45.243 16.9582 45.241 16.9663 45.2392C16.9746 45.2372 16.9833 45.2363 16.9907 45.2363V47.2363ZM17.8217 47.045C17.9462 46.9844 18.0633 46.9118 18.1724 46.8283L16.9572 45.2398C16.9522 45.2436 16.9486 45.2456 16.9459 45.247L17.8217 47.045ZM18.3267 45.3863L17.5357 44.4559L16.012 45.7514L16.803 46.6818L18.3267 45.3863ZM17.4729 45.2839L17.6908 45.1371L16.5738 43.4781L16.3558 43.6249L17.4729 45.2839ZM17.687 45.1397C17.8431 45.0356 18.0347 44.8835 18.1809 44.6669L16.5232 43.548C16.5555 43.5001 16.5831 43.474 16.5907 43.4671C16.5989 43.4596 16.5967 43.4629 16.5776 43.4756L17.687 45.1397ZM18.1872 44.6574C18.3622 44.3918 18.418 44.1056 18.418 43.8584H16.418C16.418 43.8097 16.4298 43.6896 16.5169 43.5574L18.1872 44.6574ZM18.418 43.8584C18.418 43.4892 18.267 43.1787 18.0602 42.9513L16.5804 44.2967C16.5467 44.2597 16.5041 44.2017 16.4705 44.1209C16.436 44.0381 16.418 43.9481 16.418 43.8584H18.418ZM18.0602 42.9513C17.7636 42.625 17.3758 42.5166 17.0444 42.5166V44.5166C17.0044 44.5166 16.9303 44.5106 16.8397 44.4753C16.7445 44.4383 16.6539 44.3776 16.5804 44.2967L18.0602 42.9513ZM17.0444 42.5166C16.801 42.5166 16.5236 42.5759 16.2689 42.7505L17.4 44.3999C17.2593 44.4964 17.1219 44.5166 17.0444 44.5166V42.5166ZM16.2853 42.7395C16.068 42.8823 15.9026 43.0789 15.7971 43.3075L17.613 44.1456C17.5661 44.2472 17.487 44.343 17.3836 44.4109L16.2853 42.7395ZM15.7923 43.3182C15.7001 43.5241 15.6636 43.735 15.6636 43.9341H17.6636C17.6636 43.9801 17.6547 44.0527 17.6179 44.1349L15.7923 43.3182ZM15.6636 43.9341C15.6636 44.1818 15.7276 44.4047 15.8179 44.5933L17.6215 43.729C17.637 43.7613 17.6636 43.8328 17.6636 43.9341H15.6636ZM15.8215 44.6007C15.8947 44.7502 15.9848 44.8876 16.0809 45.0125L17.6662 43.7931C17.6321 43.7488 17.6197 43.7251 17.6179 43.7216L15.8215 44.6007ZM16.0867 45.02C16.1019 45.0393 16.1173 45.0588 16.133 45.0784L17.6957 43.8303C17.6835 43.815 17.6717 43.8002 17.6604 43.7857L16.0867 45.02ZM22.5229 46.4966H23.1333V44.4966H22.5229V46.4966ZM23.2941 46.3582C23.4232 46.1147 23.4879 45.8568 23.5163 45.6116L21.5296 45.3816C21.526 45.4123 21.5218 45.4296 21.5199 45.4361C21.5181 45.4424 21.5193 45.436 21.5272 45.4211L23.2941 46.3582ZM22.6166 47.0231C22.9064 46.876 23.1425 46.6481 23.2967 46.3531L21.5245 45.4262C21.5436 45.3898 21.5711 45.351 21.6075 45.3153C21.6438 45.2797 21.6807 45.2553 21.7115 45.2396L22.6166 47.0231ZM21.7417 47.2144C22.0097 47.2144 22.3244 47.1736 22.622 47.0203L21.7061 45.2424C21.7499 45.2198 21.7799 45.2134 21.7851 45.2124C21.79 45.2114 21.7772 45.2144 21.7417 45.2144V47.2144ZM20.8874 47.0031C21.168 47.1589 21.4658 47.2144 21.7417 47.2144V45.2144C21.7311 45.2144 21.7832 45.2128 21.8587 45.2547L20.8874 47.0031ZM20.2771 46.4266C20.4281 46.6623 20.6322 46.8613 20.8874 47.0031L21.8587 45.2547C21.8811 45.2672 21.9029 45.2831 21.9221 45.3015C21.9412 45.3196 21.9538 45.3363 21.9612 45.3478L20.2771 46.4266ZM19.997 45.7329C20.0493 45.9656 20.1353 46.1998 20.2711 46.4172L21.9671 45.3572C21.9728 45.3663 21.9611 45.3515 21.9483 45.2944L19.997 45.7329ZM19.9263 45.0254C19.9263 45.2608 19.9465 45.4942 19.9942 45.7202L21.9511 45.3071C21.937 45.2402 21.9263 45.148 21.9263 45.0254H19.9263ZM19.9263 44.7251V45.0254H21.9263V44.7251H19.9263ZM20.0037 43.9949C19.9484 44.232 19.9263 44.4783 19.9263 44.7251H21.9263C21.9263 44.5943 21.9383 44.5053 21.9514 44.4494L20.0037 43.9949ZM20.3145 43.2787C20.1595 43.5022 20.0636 43.747 20.0055 43.9872L21.9495 44.4571C21.9631 44.4011 21.973 44.3969 21.9579 44.4185L20.3145 43.2787ZM20.9503 42.7247C20.6878 42.856 20.4747 43.0477 20.3145 43.2787L21.9579 44.4185C21.9494 44.4309 21.9351 44.4483 21.914 44.4668C21.8928 44.4855 21.869 44.5014 21.8447 44.5136L20.9503 42.7247ZM21.7637 42.541C21.4995 42.541 21.2186 42.5906 20.9503 42.7247L21.8447 44.5136C21.7847 44.5436 21.7479 44.541 21.7637 44.541V42.541ZM22.6632 42.7541C22.3604 42.5864 22.038 42.541 21.7637 42.541V44.541C21.7934 44.541 21.7997 44.5437 21.7884 44.5413C21.7765 44.5388 21.7413 44.5298 21.6942 44.5037L22.6632 42.7541ZM23.3151 43.4361C23.1706 43.1427 22.9441 42.9053 22.6528 42.7484L21.7046 44.5094C21.67 44.4907 21.6321 44.4635 21.5968 44.4267C21.5615 44.39 21.5369 44.3523 21.5209 44.3198L23.3151 43.4361ZM23.5198 44.1652C23.4938 43.9213 23.4322 43.6668 23.3097 43.4254L21.5262 44.3305C21.5201 44.3184 21.5197 44.3143 21.5217 44.3216C21.5238 44.3291 21.5278 44.3467 21.531 44.3768L23.5198 44.1652ZM23.1357 43.271H22.5254V45.271H23.1357V43.271ZM22.0754 44.1487C22.1023 44.1941 22.1296 44.2627 22.141 44.3732L24.1305 44.1688C24.093 43.8041 23.9869 43.4511 23.7957 43.1287L22.0754 44.1487ZM22.0109 44.0889C22.0494 44.1095 22.0618 44.1255 22.072 44.143L23.799 43.1343C23.5944 42.784 23.3041 42.5119 22.952 42.3242L22.0109 44.0889ZM21.7637 44.0503C21.9274 44.0503 21.9952 44.0806 22.0109 44.0889L22.952 42.3242C22.577 42.1242 22.1663 42.0503 21.7637 42.0503V44.0503ZM21.5606 44.084C21.5968 44.0682 21.6589 44.0503 21.7637 44.0503V42.0503C21.4225 42.0503 21.0825 42.1105 20.7607 42.2509L21.5606 44.084ZM21.4634 44.1576C21.4935 44.1225 21.5242 44.1001 21.5637 44.0827L20.7576 42.2523C20.4423 42.3912 20.1686 42.595 19.9448 42.856L21.4634 44.1576ZM21.3606 44.3506C21.3926 44.2538 21.4293 44.1969 21.4598 44.1618L19.9484 42.8519C19.725 43.1097 19.5664 43.406 19.4617 43.7226L21.3606 44.3506ZM21.311 44.73C21.311 44.5608 21.3332 44.4356 21.3628 44.3438L19.4595 43.7294C19.3556 44.0511 19.311 44.3881 19.311 44.73H21.311ZM21.311 45.0254V44.73H19.311V45.0254H21.311ZM21.3625 45.4183C21.3329 45.3244 21.311 45.1968 21.311 45.0254H19.311C19.311 45.3651 19.3543 45.6997 19.4549 46.0192L21.3625 45.4183ZM21.4566 45.5984C21.4275 45.5644 21.3916 45.5083 21.3603 45.4115L19.4571 46.026C19.5593 46.3426 19.7154 46.6397 19.9369 46.8986L21.4566 45.5984ZM21.5616 45.6748C21.5163 45.6542 21.4831 45.629 21.453 45.5942L19.9405 46.9028C20.1611 47.1578 20.429 47.3571 20.7353 47.4961L21.5616 45.6748ZM21.7417 45.7026C21.642 45.7026 21.5855 45.6854 21.5546 45.6716L20.7423 47.4993C21.0629 47.6418 21.4019 47.7026 21.7417 47.7026V45.7026ZM22.0101 45.6593C21.9857 45.672 21.9097 45.7026 21.7417 45.7026V47.7026C22.1467 47.7026 22.5573 47.6291 22.9333 47.4335L22.0101 45.6593ZM22.0853 45.5968C22.0757 45.6124 22.0601 45.6333 22.0101 45.6593L22.9333 47.4335C23.2836 47.2512 23.5789 46.9872 23.7907 46.6415L22.0853 45.5968ZM22.1368 45.413C22.129 45.5065 22.1062 45.5623 22.0832 45.6002L23.7928 46.6381C23.9911 46.3114 24.0986 45.9522 24.1298 45.5802L22.1368 45.413ZM25.5244 44.7788V44.9741H27.5244V44.7788H25.5244ZM25.4698 44.3792C25.5002 44.469 25.5244 44.5979 25.5244 44.7788H27.5244C27.5244 44.4226 27.477 44.0713 27.3642 43.738L25.4698 44.3792ZM25.3621 44.1703C25.3941 44.2071 25.433 44.2674 25.4669 44.3705L27.3671 43.7467C27.261 43.4234 27.0997 43.1207 26.8713 42.858L25.3621 44.1703ZM25.2535 44.0878C25.2931 44.1049 25.3256 44.128 25.3586 44.1663L26.8748 42.862C26.6473 42.5976 26.369 42.3912 26.0473 42.2521L25.2535 44.0878ZM25.0498 44.0503C25.1462 44.0503 25.2068 44.0672 25.2465 44.0847L26.0542 42.2551C25.7327 42.1132 25.3929 42.0503 25.0498 42.0503V44.0503ZM24.8555 44.0847C24.8962 44.0668 24.9562 44.0503 25.0498 44.0503V42.0503C24.7072 42.0503 24.3684 42.1136 24.0478 42.2551L24.8555 44.0847ZM24.7394 44.1709C24.7767 44.1282 24.8122 44.1036 24.8516 44.0865L24.0517 42.2534C23.733 42.3924 23.4577 42.5974 23.2313 42.8574L24.7394 44.1709ZM24.6306 44.377C24.666 44.2714 24.7064 44.2089 24.74 44.1703L23.2308 42.858C23.0039 43.1189 22.8424 43.4193 22.7347 43.7402L24.6306 44.377ZM24.5752 44.7788C24.5752 44.5979 24.5994 44.469 24.6298 44.3792L22.7354 43.738C22.6226 44.0713 22.5752 44.4226 22.5752 44.7788H24.5752ZM24.5752 44.9741V44.7788H22.5752V44.9741H24.5752ZM24.6306 45.3784C24.5994 45.2855 24.5752 45.1548 24.5752 44.9741H22.5752C22.5752 45.3305 22.6226 45.6817 22.7347 46.0152L24.6306 45.3784ZM24.7408 45.5804C24.7059 45.5408 24.6646 45.4775 24.6284 45.3719L22.7369 46.0217C22.8471 46.3425 23.0109 46.6422 23.2397 46.902L24.7408 45.5804ZM24.8635 45.672C24.8182 45.6518 24.7793 45.6242 24.7408 45.5804L23.2397 46.902C23.4648 47.1577 23.7368 47.3596 24.0496 47.4989L24.8635 45.672ZM25.0547 45.7026C24.9583 45.7026 24.8959 45.6859 24.8535 45.6676L24.0596 47.5033C24.3785 47.6412 24.7149 47.7026 25.0547 47.7026V45.7026ZM25.2584 45.6676C25.2168 45.6856 25.1538 45.7026 25.0547 45.7026V47.7026C25.395 47.7026 25.7324 47.6416 26.0522 47.5033L25.2584 45.6676ZM25.3605 45.5897C25.3291 45.6263 25.2957 45.6511 25.2514 45.6706L26.0591 47.5003C26.3761 47.3603 26.652 47.1556 26.8778 46.8927L25.3605 45.5897ZM25.4693 45.3849C25.4355 45.488 25.3965 45.5482 25.3645 45.585L26.8737 46.8974C27.1022 46.6347 27.2634 46.332 27.3696 46.0086L25.4693 45.3849ZM25.5244 44.9741C25.5244 45.1569 25.5005 45.2899 25.4693 45.3849L27.3696 46.0086C27.4783 45.6772 27.5244 45.3284 27.5244 44.9741H25.5244ZM26.9116 44.9741V44.7739H24.9116V44.9741H26.9116ZM26.8219 45.7488C26.8861 45.4974 26.9116 45.2358 26.9116 44.9741H24.9116C24.9116 45.1096 24.898 45.1995 24.8841 45.2541L26.8219 45.7488ZM26.5092 46.4589C26.6657 46.2329 26.7642 45.9851 26.8244 45.7391L24.8817 45.2638C24.867 45.3239 24.8549 45.3348 24.8648 45.3204L26.5092 46.4589ZM25.8711 47.0181C26.1334 46.885 26.3448 46.6927 26.505 46.4648L24.869 45.3145C24.8745 45.3066 24.8856 45.2928 24.9035 45.2769C24.9217 45.2609 24.9429 45.2464 24.9658 45.2348L25.8711 47.0181ZM25.0547 47.2046C25.3202 47.2046 25.5966 47.1534 25.8601 47.0236L24.9768 45.2293C25.0012 45.2173 25.0227 45.2107 25.0382 45.2074C25.0532 45.2041 25.0596 45.2046 25.0547 45.2046V47.2046ZM24.2517 47.0236C24.5136 47.1526 24.7888 47.2046 25.0547 47.2046V45.2046C25.0515 45.2046 25.0589 45.2043 25.0744 45.2076C25.0903 45.2111 25.1115 45.2177 25.135 45.2293L24.2517 47.0236ZM23.6139 46.4816C23.7747 46.7004 23.9831 46.8874 24.2407 47.0181L25.146 45.2348C25.1669 45.2454 25.1854 45.2581 25.2003 45.2711C25.215 45.2838 25.2232 45.294 25.2259 45.2977L23.6139 46.4816ZM23.2801 45.7488C23.343 45.9953 23.4446 46.2425 23.6037 46.4673L25.2362 45.312C25.2455 45.3252 25.2332 45.3137 25.2179 45.2541L23.2801 45.7488ZM23.1904 44.9741C23.1904 45.2358 23.2159 45.4974 23.2801 45.7488L25.2179 45.2541C25.204 45.1995 25.1904 45.1096 25.1904 44.9741H23.1904ZM23.1904 44.7739V44.9741H25.1904V44.7739H23.1904ZM23.2807 43.9991C23.2158 44.2506 23.1904 44.5126 23.1904 44.7739H25.1904C25.1904 44.6381 25.2041 44.5502 25.2173 44.4989L23.2807 43.9991ZM23.6037 43.2845C23.4429 43.5097 23.3423 43.7579 23.2801 44.0016L25.2179 44.4964C25.2338 44.4341 25.2456 44.4269 25.2312 44.447L23.6037 43.2845ZM24.2468 42.7342C23.981 42.865 23.7675 43.0566 23.6055 43.2821L25.2295 44.4494C25.2246 44.4562 25.2138 44.4696 25.1955 44.4854C25.177 44.5014 25.1548 44.5164 25.1301 44.5285L24.2468 42.7342ZM25.0498 42.5508C24.7793 42.5508 24.5002 42.6054 24.2358 42.7397L25.1412 44.523C25.1166 44.5355 25.0939 44.5429 25.0758 44.547C25.0582 44.5509 25.0486 44.5508 25.0498 44.5508V42.5508ZM25.8608 42.7369C25.598 42.6055 25.3206 42.5508 25.0498 42.5508V44.5508C25.0509 44.5508 25.0421 44.5509 25.0258 44.5473C25.0091 44.5436 24.9885 44.5368 24.9664 44.5258L25.8608 42.7369ZM26.5026 43.2906C26.3384 43.0571 26.1202 42.8626 25.8498 42.7315L24.9773 44.5312C24.9524 44.5191 24.9286 44.5034 24.9077 44.4854C24.8871 44.4675 24.8738 44.4513 24.8665 44.4409L26.5026 43.2906ZM26.8244 44.0114C26.7631 43.761 26.6602 43.5062 26.4922 43.276L24.8769 44.4554C24.8587 44.4304 24.8681 44.4311 24.8817 44.4867L26.8244 44.0114ZM26.9116 44.7739C26.9116 44.5126 26.8862 44.2506 26.8213 43.9991L24.8848 44.4989C24.898 44.5502 24.9116 44.6381 24.9116 44.7739H26.9116Z" fill="#AFB1B8" mask="url(#path-1-inside-1_1_557)"/>
</svg>
